<svg xmlns="http://www.w3.org/2000/svg" viewBox="0 0 32 32" shape-rendering="geometricPrecision">
  <g stroke="#0D1F3D" stroke-width="0.7" stroke-linecap="round" fill="none">
    <line x1="16" y1="4" x2="26" y2="9.5"/>
    <line x1="26" y1="9.5" x2="26" y2="22.5"/>
    <line x1="26" y1="22.5" x2="16" y2="28"/>
    <line x1="16" y1="28" x2="6" y2="22.5"/>
    <line x1="6" y1="22.5" x2="6" y2="9.5"/>
    <line x1="6" y1="9.5" x2="16" y2="4"/>
  </g>
  <line x1="16" y1="4" x2="26" y2="9.5" stroke="#1E88E5" stroke-width="0.7" stroke-linecap="round"/>

  <path d="M 16 10 L 21 11.5 L 21 18 Q 21 21 16 23 Q 11 21 11 18 L 11 11.5 Z" fill="#0D1F3D"/>
  <path d="M 16 10 L 21 11.5 L 21 18 Q 21 21 16 23 L 16 10 Z" fill="#1E88E5"/>

  <circle cx="16" cy="4" r="2" fill="#0D1F3D"/>
  <circle cx="26" cy="9.5" r="2" fill="#1E88E5"/>
  <circle cx="26" cy="22.5" r="2" fill="#0D1F3D"/>
  <circle cx="16" cy="28" r="2" fill="#0D1F3D"/>
  <circle cx="6" cy="22.5" r="2" fill="#0D1F3D"/>
  <circle cx="6" cy="9.5" r="2" fill="#0D1F3D"/>
</svg>
