<svg xmlns="http://www.w3.org/2000/svg" viewBox="0 0 16 16" shape-rendering="geometricPrecision">
  <g stroke="#0D1F3D" stroke-width="0.5" stroke-linecap="round" fill="none">
    <line x1="8" y1="2" x2="13" y2="4.75"/>
    <line x1="13" y1="4.75" x2="13" y2="11.25"/>
    <line x1="13" y1="11.25" x2="8" y2="14"/>
    <line x1="8" y1="14" x2="3" y2="11.25"/>
    <line x1="3" y1="11.25" x2="3" y2="4.75"/>
    <line x1="3" y1="4.75" x2="8" y2="2"/>
  </g>

  <path d="M 8 5 L 10.5 5.75 L 10.5 9 Q 10.5 10.5 8 11.5 Q 5.5 10.5 5.5 9 L 5.5 5.75 Z" fill="#0D1F3D"/>
  <path d="M 8 5 L 10.5 5.75 L 10.5 9 Q 10.5 10.5 8 11.5 L 8 5 Z" fill="#1E88E5"/>

  <circle cx="8" cy="2" r="1" fill="#0D1F3D"/>
  <circle cx="13" cy="4.75" r="1" fill="#1E88E5"/>
  <circle cx="13" cy="11.25" r="1" fill="#0D1F3D"/>
  <circle cx="8" cy="14" r="1" fill="#0D1F3D"/>
  <circle cx="3" cy="11.25" r="1" fill="#0D1F3D"/>
  <circle cx="3" cy="4.75" r="1" fill="#0D1F3D"/>
</svg>
