<svg xmlns="http://www.w3.org/2000/svg" viewBox="0 0 1640 500">
  <g transform="translate(20,40)">
    <g stroke="#0D1F3D" stroke-width="7" stroke-linecap="round" fill="none">
      <line x1="200" y1="60" x2="321" y2="130"/>
      <line x1="321" y1="130" x2="321" y2="270"/>
      <line x1="321" y1="270" x2="200" y2="340"/>
      <line x1="200" y1="340" x2="79" y2="270"/>
      <line x1="79" y1="270" x2="79" y2="130"/>
      <line x1="79" y1="130" x2="200" y2="60"/>
    </g>
    <line x1="200" y1="60" x2="321" y2="130" stroke="#1E88E5" stroke-width="7" stroke-linecap="round"/>
    <path d="M 200 135 L 252 153 L 252 222 Q 252 262 200 285 Q 148 262 148 222 L 148 153 Z" fill="#0D1F3D"/>
    <path d="M 200 135 L 252 153 L 252 222 Q 252 262 200 285 L 200 135 Z" fill="#1E88E5"/>
    <circle cx="200" cy="60" r="20" fill="#0D1F3D"/>
    <circle cx="321" cy="130" r="20" fill="#1E88E5"/>
    <circle cx="321" cy="270" r="20" fill="#0D1F3D"/>
    <circle cx="200" cy="340" r="20" fill="#0D1F3D"/>
    <circle cx="79" cy="270" r="20" fill="#0D1F3D"/>
    <circle cx="79" cy="130" r="20" fill="#0D1F3D"/>
  </g>
  <g transform="translate(470,305)">
    <path d="M693 351Q693 248 647.5 168.0Q602 88 518.5 44.0Q435 0 325 0H62V702H325Q436 702 519.0 658.0Q602 614 647.5 534.5Q693 455 693 351ZM519 351Q519 448 465.0 502.0Q411 556 314 556H233V148H314Q411 148 465.0 201.0Q519 254 519 351Z" transform="translate(0.000,0) scale(0.280000,-0.280000)" fill="#0D1F3D"/>
    <path d="M230 702V282Q230 219 261.0 185.0Q292 151 352 151Q412 151 444.0 185.0Q476 219 476 282V702H647V283Q647 189 607.0 124.0Q567 59 499.5 26.0Q432 -7 349 -7Q266 -7 200.5 25.5Q135 58 97.0 123.5Q59 189 59 283V702Z" transform="translate(199.560,0) scale(0.280000,-0.280000)" fill="#1E88E5"/>
    <path d="M528 480Q509 515 473.5 533.5Q438 552 390 552Q307 552 257.0 497.5Q207 443 207 352Q207 255 259.5 200.5Q312 146 404 146Q467 146 510.5 178.0Q554 210 574 270H357V396H729V237Q710 173 664.5 118.0Q619 63 549.0 29.0Q479 -5 391 -5Q287 -5 205.5 40.5Q124 86 78.5 167.0Q33 248 33 352Q33 456 78.5 537.5Q124 619 205.0 664.5Q286 710 390 710Q516 710 602.5 649.0Q689 588 717 480Z" transform="translate(392.960,0) scale(0.280000,-0.280000)" fill="#0D1F3D"/>
  </g>
  <line x1="470" y1="345" x2="1590.2" y2="345" stroke="#1E88E5" stroke-width="3"/>
  <g transform="translate(470,408)">
    <path d="M693 351Q693 248 647.5 168.0Q602 88 518.5 44.0Q435 0 325 0H62V702H325Q436 702 519.0 658.0Q602 614 647.5 534.5Q693 455 693 351ZM519 351Q519 448 465.0 502.0Q411 556 314 556H233V148H314Q411 148 465.0 201.0Q519 254 519 351Z" transform="translate(0.000,0) scale(0.042000,-0.042000)" fill="#0D1F3D"/>
    <path d="M233 565V423H462V291H233V137H492V0H62V702H492V565Z" transform="translate(40.534,0) scale(0.042000,-0.042000)" fill="#0D1F3D"/>
    <path d="M386 710Q511 710 600.0 644.0Q689 578 719 464H531Q510 508 471.5 531.0Q433 554 384 554Q305 554 256.0 499.0Q207 444 207 352Q207 260 256.0 205.0Q305 150 384 150Q433 150 471.5 173.0Q510 196 531 240H719Q689 126 600.0 60.5Q511 -5 386 -5Q284 -5 203.5 40.5Q123 86 78.0 167.0Q33 248 33 352Q33 456 78.0 537.5Q123 619 203.5 664.5Q284 710 386 710Z" transform="translate(73.256,0) scale(0.042000,-0.042000)" fill="#0D1F3D"/>
    <path d="M233 565V423H462V291H233V137H492V0H62V702H492V565Z" transform="translate(115.260,0) scale(0.042000,-0.042000)" fill="#0D1F3D"/>
    <path d="M690 0H519L233 433V0H62V702H233L519 267V702H690Z" transform="translate(147.982,0) scale(0.042000,-0.042000)" fill="#0D1F3D"/>
    <path d="M567 702V565H381V0H210V565H24V702Z" transform="translate(189.566,0) scale(0.042000,-0.042000)" fill="#0D1F3D"/>
    <path d="M420 0 274 265H233V0H62V702H349Q432 702 490.5 673.0Q549 644 578.0 593.5Q607 543 607 481Q607 411 567.5 356.0Q528 301 451 278L613 0ZM233 386H339Q386 386 409.5 409.0Q433 432 433 474Q433 514 409.5 537.0Q386 560 339 560H233Z" transform="translate(224.388,0) scale(0.042000,-0.042000)" fill="#0D1F3D"/>
    <path d="M499 124H237L195 0H16L270 702H468L722 0H541ZM455 256 368 513 282 256Z" transform="translate(261.772,0) scale(0.042000,-0.042000)" fill="#0D1F3D"/>
    <path d="M233 132H457V0H62V702H233Z" transform="translate(302.726,0) scale(0.042000,-0.042000)" fill="#0D1F3D"/>
    <path d="M233 702V0H62V702Z" transform="translate(332.760,0) scale(0.042000,-0.042000)" fill="#0D1F3D"/>
    <path d="M244 140H546V0H50V130L350 562H50V702H546V572Z" transform="translate(355.150,0) scale(0.042000,-0.042000)" fill="#0D1F3D"/>
    <path d="M233 565V423H462V291H233V137H492V0H62V702H492V565Z" transform="translate(390.182,0) scale(0.042000,-0.042000)" fill="#0D1F3D"/>
    <path d="M693 351Q693 248 647.5 168.0Q602 88 518.5 44.0Q435 0 325 0H62V702H325Q436 702 519.0 658.0Q602 614 647.5 534.5Q693 455 693 351ZM519 351Q519 448 465.0 502.0Q411 556 314 556H233V148H314Q411 148 465.0 201.0Q519 254 519 351Z" transform="translate(422.904,0) scale(0.042000,-0.042000)" fill="#0D1F3D"/>
  </g>
  <g transform="translate(944.4,408)">
    <path d="M230 702V282Q230 219 261.0 185.0Q292 151 352 151Q412 151 444.0 185.0Q476 219 476 282V702H647V283Q647 189 607.0 124.0Q567 59 499.5 26.0Q432 -7 349 -7Q266 -7 200.5 25.5Q135 58 97.0 123.5Q59 189 59 283V702Z" transform="translate(0.000,0) scale(0.042000,-0.042000)" fill="#1E88E5"/>
    <path d="M690 0H519L233 433V0H62V702H233L519 267V702H690Z" transform="translate(39.610,0) scale(0.042000,-0.042000)" fill="#1E88E5"/>
    <path d="M693 351Q693 248 647.5 168.0Q602 88 518.5 44.0Q435 0 325 0H62V702H325Q436 702 519.0 658.0Q602 614 647.5 534.5Q693 455 693 351ZM519 351Q519 448 465.0 502.0Q411 556 314 556H233V148H314Q411 148 465.0 201.0Q519 254 519 351Z" transform="translate(81.194,0) scale(0.042000,-0.042000)" fill="#1E88E5"/>
    <path d="M233 565V423H462V291H233V137H492V0H62V702H492V565Z" transform="translate(121.728,0) scale(0.042000,-0.042000)" fill="#1E88E5"/>
    <path d="M420 0 274 265H233V0H62V702H349Q432 702 490.5 673.0Q549 644 578.0 593.5Q607 543 607 481Q607 411 567.5 356.0Q528 301 451 278L613 0ZM233 386H339Q386 386 409.5 409.0Q433 432 433 474Q433 514 409.5 537.0Q386 560 339 560H233Z" transform="translate(154.450,0) scale(0.042000,-0.042000)" fill="#1E88E5"/>
    <path d="M1028 702 845 0H638L526 462L410 0H203L25 702H208L309 191L434 702H622L742 191L844 702Z" transform="translate(191.834,0) scale(0.042000,-0.042000)" fill="#1E88E5"/>
    <path d="M420 0 274 265H233V0H62V702H349Q432 702 490.5 673.0Q549 644 578.0 593.5Q607 543 607 481Q607 411 567.5 356.0Q528 301 451 278L613 0ZM233 386H339Q386 386 409.5 409.0Q433 432 433 474Q433 514 409.5 537.0Q386 560 339 560H233Z" transform="translate(246.018,0) scale(0.042000,-0.042000)" fill="#1E88E5"/>
    <path d="M233 702V0H62V702Z" transform="translate(283.402,0) scale(0.042000,-0.042000)" fill="#1E88E5"/>
    <path d="M567 702V565H381V0H210V565H24V702Z" transform="translate(305.792,0) scale(0.042000,-0.042000)" fill="#1E88E5"/>
    <path d="M233 702V0H62V702Z" transform="translate(340.614,0) scale(0.042000,-0.042000)" fill="#1E88E5"/>
    <path d="M690 0H519L233 433V0H62V702H233L519 267V702H690Z" transform="translate(363.004,0) scale(0.042000,-0.042000)" fill="#1E88E5"/>
    <path d="M528 480Q509 515 473.5 533.5Q438 552 390 552Q307 552 257.0 497.5Q207 443 207 352Q207 255 259.5 200.5Q312 146 404 146Q467 146 510.5 178.0Q554 210 574 270H357V396H729V237Q710 173 664.5 118.0Q619 63 549.0 29.0Q479 -5 391 -5Q287 -5 205.5 40.5Q124 86 78.5 167.0Q33 248 33 352Q33 456 78.5 537.5Q124 619 205.0 664.5Q286 710 390 710Q516 710 602.5 649.0Q689 588 717 480Z" transform="translate(404.588,0) scale(0.042000,-0.042000)" fill="#1E88E5"/>
  </g>
  <g transform="translate(1402.0,408)">
    <path d="M528 480Q509 515 473.5 533.5Q438 552 390 552Q307 552 257.0 497.5Q207 443 207 352Q207 255 259.5 200.5Q312 146 404 146Q467 146 510.5 178.0Q554 210 574 270H357V396H729V237Q710 173 664.5 118.0Q619 63 549.0 29.0Q479 -5 391 -5Q287 -5 205.5 40.5Q124 86 78.5 167.0Q33 248 33 352Q33 456 78.5 537.5Q124 619 205.0 664.5Q286 710 390 710Q516 710 602.5 649.0Q689 588 717 480Z" transform="translate(0.000,0) scale(0.042000,-0.042000)" fill="#0D1F3D"/>
    <path d="M420 0 274 265H233V0H62V702H349Q432 702 490.5 673.0Q549 644 578.0 593.5Q607 543 607 481Q607 411 567.5 356.0Q528 301 451 278L613 0ZM233 386H339Q386 386 409.5 409.0Q433 432 433 474Q433 514 409.5 537.0Q386 560 339 560H233Z" transform="translate(42.004,0) scale(0.042000,-0.042000)" fill="#0D1F3D"/>
    <path d="M33 353Q33 456 81.5 538.0Q130 620 212.5 666.0Q295 712 394 712Q493 712 575.5 666.0Q658 620 705.5 538.0Q753 456 753 353Q753 250 705.0 167.5Q657 85 575.0 39.0Q493 -7 394 -7Q295 -7 212.5 39.0Q130 85 81.5 167.5Q33 250 33 353ZM579 353Q579 446 528.5 501.5Q478 557 394 557Q309 557 258.5 502.0Q208 447 208 353Q208 260 258.5 204.5Q309 149 394 149Q478 149 528.5 205.0Q579 261 579 353Z" transform="translate(79.388,0) scale(0.042000,-0.042000)" fill="#0D1F3D"/>
    <path d="M230 702V282Q230 219 261.0 185.0Q292 151 352 151Q412 151 444.0 185.0Q476 219 476 282V702H647V283Q647 189 607.0 124.0Q567 59 499.5 26.0Q432 -7 349 -7Q266 -7 200.5 25.5Q135 58 97.0 123.5Q59 189 59 283V702Z" transform="translate(122.400,0) scale(0.042000,-0.042000)" fill="#0D1F3D"/>
    <path d="M339 252H233V0H62V702H339Q423 702 481.0 673.0Q539 644 568.0 593.0Q597 542 597 476Q597 415 569.0 364.5Q541 314 483.0 283.0Q425 252 339 252ZM423 476Q423 518 399.0 541.0Q375 564 326 564H233V388H326Q375 388 399.0 411.0Q423 434 423 476Z" transform="translate(162.010,0) scale(0.042000,-0.042000)" fill="#0D1F3D"/>
  </g>
</svg>
